<svg width="405" height="360" viewBox="0 0 405 360" fill="none" xmlns="http://www.w3.org/2000/svg">
<g clip-path="url(#clip0_6126_749)">
<g opacity="0.75" filter="url(#filter0_f_6126_749)">
<path d="M32 45C32 38.3726 37.3726 33 44 33H361C367.627 33 373 38.3726 373 45V409C373 415.627 367.627 421 361 421H44C37.3726 421 32 415.627 32 409V45Z" fill="white"/>
<path d="M44 30.5C35.9919 30.5 29.5 36.9919 29.5 45V409C29.5 417.008 35.9919 423.5 44 423.5H361C369.008 423.5 375.5 417.008 375.5 409V45C375.5 36.9919 369.008 30.5 361 30.5H44Z" stroke="url(#paint0_linear_6126_749)" stroke-width="5"/>
</g>
<path d="M-2 32.5C-8.90356 32.5 -14.5 38.0964 -14.5 45V419C-14.5 425.904 -8.90355 431.5 -1.99999 431.5H361C367.904 431.5 373.5 425.904 373.5 419V45C373.5 38.0964 367.904 32.5 361 32.5H-2Z" fill="white"/>
<path d="M-2 32.5C-8.90356 32.5 -14.5 38.0964 -14.5 45V419C-14.5 425.904 -8.90355 431.5 -1.99999 431.5H361C367.904 431.5 373.5 425.904 373.5 419V45C373.5 38.0964 367.904 32.5 361 32.5H-2Z" stroke="url(#paint1_linear_6126_749)"/>
<path d="M320.5 185C320.5 216.752 294.537 242.5 262.5 242.5C230.463 242.5 204.5 216.752 204.5 185C204.5 153.248 230.463 127.5 262.5 127.5C294.537 127.5 320.5 153.248 320.5 185Z" stroke="url(#paint2_linear_6126_749)"/>
<circle cx="262.5" cy="184.5" r="81" stroke="url(#paint3_linear_6126_749)"/>
<path d="M300.5 185.5C300.5 207.051 283.475 224.5 262.5 224.5C241.525 224.5 224.5 207.051 224.5 185.5C224.5 163.949 241.525 146.5 262.5 146.5C283.475 146.5 300.5 163.949 300.5 185.5Z" stroke="url(#paint4_linear_6126_749)"/>
<path d="M114 177.959C113.148 177.959 112.303 178.127 111.516 178.453C110.728 178.779 110.012 179.257 109.41 179.86C108.807 180.463 108.328 181.179 108.002 181.966C107.676 182.754 107.508 183.598 107.508 184.451C107.508 185.304 107.676 186.148 108.002 186.936C108.328 187.723 108.807 188.439 109.41 189.042C110.012 189.645 110.728 190.123 111.516 190.449C112.303 190.775 113.148 190.943 114 190.943C115.722 190.943 117.374 190.259 118.591 189.042C119.809 187.824 120.493 186.173 120.493 184.451C120.493 182.729 119.809 181.078 118.591 179.86C117.374 178.643 115.722 177.959 114 177.959ZM109.508 184.451C109.508 183.26 109.981 182.117 110.824 181.274C111.666 180.432 112.809 179.959 114 179.959C115.192 179.959 116.334 180.432 117.177 181.274C118.019 182.117 118.493 183.26 118.493 184.451C118.493 185.642 118.019 186.785 117.177 187.628C116.334 188.47 115.192 188.943 114 188.943C112.809 188.943 111.666 188.47 110.824 187.628C109.981 186.785 109.508 185.642 109.508 184.451Z" fill="url(#paint5_linear_6126_749)"/>
<path fill-rule="evenodd" clip-rule="evenodd" d="M110.409 171.136C111.463 167.556 116.54 167.556 117.594 171.136L117.782 171.774C117.855 172.024 117.984 172.255 118.158 172.448C118.332 172.642 118.548 172.794 118.788 172.894C119.029 172.994 119.289 173.038 119.549 173.025C119.809 173.011 120.063 172.939 120.292 172.814L120.876 172.496C124.154 170.71 127.744 174.297 125.958 177.577L125.638 178.161C125.514 178.39 125.442 178.643 125.428 178.904C125.414 179.164 125.459 179.424 125.558 179.664C125.658 179.905 125.811 180.12 126.004 180.295C126.198 180.469 126.428 180.597 126.678 180.671L127.316 180.859C130.897 181.913 130.897 186.989 127.316 188.043L126.678 188.231C126.428 188.305 126.198 188.434 126.004 188.608C125.811 188.782 125.658 188.997 125.558 189.238C125.459 189.479 125.414 189.739 125.428 189.999C125.442 190.259 125.514 190.513 125.638 190.742L125.956 191.326C127.744 194.604 124.156 198.194 120.876 196.408L120.292 196.088C120.063 195.963 119.809 195.891 119.549 195.878C119.289 195.864 119.029 195.908 118.788 196.008C118.548 196.108 118.332 196.26 118.158 196.454C117.984 196.648 117.855 196.878 117.782 197.128L117.594 197.766C116.54 201.346 111.463 201.346 110.409 197.766L110.221 197.128C110.148 196.878 110.019 196.648 109.845 196.454C109.671 196.26 109.455 196.108 109.215 196.008C108.974 195.908 108.714 195.864 108.454 195.878C108.194 195.891 107.94 195.963 107.711 196.088L107.127 196.406C103.847 198.194 100.261 194.606 102.045 191.326L102.365 190.742C102.489 190.513 102.561 190.259 102.575 189.999C102.589 189.739 102.544 189.479 102.444 189.238C102.345 188.997 102.192 188.782 101.999 188.608C101.805 188.434 101.575 188.305 101.325 188.231L100.687 188.043C97.1064 186.989 97.1064 181.913 100.687 180.859L101.325 180.671C101.575 180.597 101.805 180.469 101.999 180.295C102.192 180.12 102.345 179.905 102.444 179.664C102.544 179.424 102.589 179.164 102.575 178.904C102.561 178.643 102.489 178.39 102.365 178.161L102.047 177.577C100.261 174.299 103.847 170.71 107.127 172.494L107.711 172.814C107.94 172.939 108.194 173.011 108.454 173.025C108.714 173.038 108.974 172.994 109.215 172.894C109.455 172.794 109.671 172.642 109.845 172.448C110.019 172.255 110.148 172.024 110.221 171.774L110.409 171.136ZM110.824 181.274C109.981 182.117 109.508 183.26 109.508 184.451C109.508 185.642 109.981 186.785 110.824 187.628C111.666 188.47 112.809 188.943 114 188.943C115.192 188.943 116.334 188.47 117.177 187.628C118.019 186.785 118.493 185.642 118.493 184.451C118.493 183.26 118.019 182.117 117.177 181.274C116.334 180.432 115.192 179.959 114 179.959C112.809 179.959 111.666 180.432 110.824 181.274Z" fill="url(#paint6_linear_6126_749)"/>
<path d="M114 177.959C113.148 177.959 112.303 178.127 111.516 178.453C110.728 178.779 110.012 179.257 109.41 179.86C108.807 180.463 108.328 181.179 108.002 181.966C107.676 182.754 107.508 183.598 107.508 184.451C107.508 185.304 107.676 186.148 108.002 186.936C108.328 187.723 108.807 188.439 109.41 189.042C110.012 189.645 110.728 190.123 111.516 190.449C112.303 190.775 113.148 190.943 114 190.943C115.722 190.943 117.374 190.259 118.591 189.042C119.809 187.824 120.493 186.173 120.493 184.451C120.493 182.729 119.809 181.078 118.591 179.86C117.374 178.643 115.722 177.959 114 177.959ZM109.508 184.451C109.508 183.26 109.981 182.117 110.824 181.274C111.666 180.432 112.809 179.959 114 179.959C115.192 179.959 116.334 180.432 117.177 181.274C118.019 182.117 118.493 183.26 118.493 184.451C118.493 185.642 118.019 186.785 117.177 187.628C116.334 188.47 115.192 188.943 114 188.943C112.809 188.943 111.666 188.47 110.824 187.628C109.981 186.785 109.508 185.642 109.508 184.451Z" fill="url(#paint7_linear_6126_749)"/>
<path d="M117.594 171.136C116.54 167.556 111.463 167.556 110.409 171.136L110.221 171.774C110.148 172.024 110.019 172.255 109.845 172.448C109.671 172.642 109.455 172.794 109.215 172.894C108.974 172.994 108.714 173.038 108.454 173.025C108.194 173.011 107.94 172.939 107.711 172.814L107.127 172.494C103.847 170.71 100.261 174.299 102.047 177.577L102.365 178.161C102.489 178.39 102.561 178.643 102.575 178.904C102.589 179.164 102.544 179.424 102.444 179.664C102.345 179.905 102.192 180.12 101.999 180.295C101.805 180.469 101.575 180.597 101.325 180.671L100.687 180.859C97.1064 181.913 97.1064 186.989 100.687 188.043L101.325 188.231C101.575 188.305 101.805 188.434 101.999 188.608C102.192 188.782 102.345 188.997 102.444 189.238C102.544 189.479 102.589 189.739 102.575 189.999C102.561 190.259 102.489 190.513 102.365 190.742L102.045 191.326C100.261 194.606 103.847 198.194 107.127 196.406L107.711 196.088C107.94 195.963 108.194 195.891 108.454 195.878C108.714 195.864 108.974 195.908 109.215 196.008C109.455 196.108 109.671 196.26 109.845 196.454C110.019 196.648 110.148 196.878 110.221 197.128L110.409 197.766C111.463 201.346 116.54 201.346 117.594 197.766L117.782 197.128C117.855 196.878 117.984 196.648 118.158 196.454C118.332 196.26 118.548 196.108 118.788 196.008C119.029 195.908 119.289 195.864 119.549 195.878C119.809 195.891 120.063 195.963 120.292 196.088L120.876 196.408C124.156 198.194 127.744 194.604 125.956 191.326L125.638 190.742C125.514 190.513 125.442 190.259 125.428 189.999C125.414 189.739 125.459 189.479 125.558 189.238C125.658 188.997 125.811 188.782 126.004 188.608C126.198 188.434 126.428 188.305 126.678 188.231L127.316 188.043C130.897 186.989 130.897 181.913 127.316 180.859L126.678 180.671C126.428 180.597 126.198 180.469 126.004 180.295C125.811 180.12 125.658 179.905 125.558 179.664C125.459 179.424 125.414 179.164 125.428 178.904C125.442 178.643 125.514 178.39 125.638 178.161L125.958 177.577C127.744 174.297 124.154 170.71 120.876 172.496L120.292 172.814C120.063 172.939 119.809 173.011 119.549 173.025C119.289 173.038 119.029 172.994 118.788 172.894C118.548 172.794 118.332 172.642 118.158 172.448C117.984 172.255 117.855 172.024 117.782 171.774L117.594 171.136ZM112.327 171.702C112.819 170.032 115.184 170.032 115.676 171.702L115.864 172.34C116.022 172.877 116.298 173.371 116.671 173.786C117.045 174.202 117.507 174.529 118.024 174.743C118.54 174.956 119.098 175.052 119.656 175.022C120.215 174.992 120.759 174.838 121.25 174.571L121.832 174.251C123.36 173.42 125.032 175.091 124.2 176.621L123.882 177.205C123.615 177.696 123.461 178.24 123.432 178.798C123.402 179.356 123.498 179.914 123.712 180.43C123.926 180.946 124.253 181.408 124.668 181.782C125.084 182.155 125.578 182.431 126.114 182.589L126.75 182.777C128.42 183.269 128.42 185.633 126.75 186.125L126.112 186.313C125.576 186.471 125.082 186.747 124.666 187.121C124.251 187.495 123.924 187.957 123.71 188.474C123.496 188.99 123.401 189.548 123.43 190.106C123.46 190.664 123.615 191.209 123.882 191.7L124.202 192.282C125.032 193.81 123.362 195.482 121.832 194.65L121.25 194.332C120.759 194.064 120.214 193.91 119.656 193.88C119.098 193.851 118.54 193.947 118.023 194.161C117.507 194.375 117.045 194.702 116.671 195.117C116.297 195.533 116.021 196.028 115.864 196.564L115.676 197.2C115.184 198.87 112.819 198.87 112.327 197.2L112.139 196.562C111.981 196.026 111.705 195.532 111.332 195.117C110.958 194.701 110.496 194.375 109.98 194.161C109.464 193.947 108.906 193.851 108.348 193.881C107.79 193.911 107.246 194.065 106.755 194.332L106.171 194.652C104.643 195.482 102.971 193.812 103.803 192.282L104.121 191.7C104.389 191.209 104.543 190.664 104.573 190.106C104.603 189.547 104.508 188.989 104.294 188.472C104.08 187.956 103.753 187.493 103.337 187.119C102.921 186.745 102.427 186.469 101.891 186.311L101.253 186.123C99.5826 185.631 99.5826 183.267 101.253 182.775L101.891 182.587C102.426 182.429 102.92 182.153 103.335 181.779C103.75 181.406 104.077 180.944 104.291 180.428C104.504 179.912 104.6 179.355 104.571 178.797C104.541 178.24 104.388 177.695 104.121 177.205L103.801 176.621C102.971 175.093 104.641 173.42 106.171 174.253L106.755 174.571C107.246 174.838 107.79 174.992 108.348 175.021C108.906 175.051 109.464 174.955 109.98 174.741C110.496 174.528 110.958 174.201 111.332 173.786C111.705 173.37 111.981 172.876 112.139 172.34L112.327 171.702Z" fill="url(#paint8_linear_6126_749)"/>
<path d="M114.278 151.947C113.952 152.709 114.304 153.591 115.066 153.917C115.827 154.243 116.709 153.891 117.035 153.129L114.278 151.947ZM145.112 117.806L144.304 116.542L145.112 117.806ZM188.997 105.636L189.038 104.136L188.997 105.636ZM232.133 120.237L233.011 119.02L233.011 119.02L232.133 120.237ZM259.604 156.559L261.114 139.305L245.416 146.624L259.604 156.559ZM117.035 153.129C123.032 139.138 133.096 127.271 145.92 119.069L144.304 116.542C130.973 125.068 120.512 137.403 114.278 151.947L117.035 153.129ZM145.92 119.069C158.745 110.868 173.738 106.71 188.955 107.135L189.038 104.136C173.22 103.694 157.635 108.017 144.304 116.542L145.92 119.069ZM188.955 107.135C204.171 107.56 218.909 112.548 231.256 121.453L233.011 119.02C220.176 109.764 204.856 104.578 189.038 104.136L188.955 107.135ZM231.256 121.453C240 127.76 247.259 135.825 252.601 145.076L255.199 143.576C249.647 133.959 242.101 125.576 233.011 119.02L231.256 121.453Z" fill="url(#paint9_linear_6126_749)"/>
<path d="M260.936 213.981C261.249 213.214 260.881 212.339 260.114 212.026C259.347 211.713 258.472 212.081 258.159 212.848L260.936 213.981ZM230.703 248.656L231.533 249.905L230.703 248.656ZM187.037 261.59L187.022 263.09L187.037 261.59ZM143.652 247.744L142.796 248.976L142.796 248.976L143.652 247.744ZM115.552 211.907L114.344 229.185L129.911 221.592L115.552 211.907ZM258.159 212.848C252.407 226.942 242.552 238.982 229.873 247.407L231.533 249.905C244.713 241.148 254.957 228.632 260.936 213.981L258.159 212.848ZM229.873 247.407C217.193 255.831 202.275 260.25 187.053 260.09L187.022 263.09C202.845 263.256 218.353 258.662 231.533 249.905L229.873 247.407ZM187.053 260.09C171.831 259.931 157.009 255.2 144.508 246.513L142.796 248.976C155.79 258.007 171.198 262.924 187.022 263.09L187.053 260.09ZM144.508 246.513C135.655 240.359 128.256 232.422 122.755 223.266L120.183 224.811C125.902 234.329 133.593 242.58 142.796 248.976L144.508 246.513Z" fill="url(#paint10_linear_6126_749)"/>
<path d="M269.162 179.428C269.262 179.33 269.38 179.252 269.511 179.199C269.642 179.145 269.782 179.118 269.924 179.118C270.066 179.118 270.206 179.145 270.337 179.199C270.468 179.252 270.586 179.33 270.685 179.428C271.101 179.836 271.107 180.496 270.7 180.911L262.099 190.78C262.001 190.884 261.883 190.967 261.751 191.026C261.619 191.084 261.476 191.115 261.331 191.118C261.186 191.12 261.042 191.094 260.907 191.041C260.773 190.988 260.652 190.908 260.55 190.808L255.316 185.66C255.115 185.461 255.001 185.192 255.001 184.912C255.001 184.632 255.115 184.364 255.316 184.164C255.416 184.065 255.534 183.987 255.665 183.934C255.796 183.881 255.936 183.853 256.078 183.853C256.22 183.853 256.36 183.881 256.491 183.934C256.622 183.987 256.74 184.065 256.839 184.164L261.279 188.531L269.133 179.459L269.162 179.428Z" fill="url(#paint11_linear_6126_749)"/>
<path fill-rule="evenodd" clip-rule="evenodd" d="M270.685 179.428C270.586 179.33 270.468 179.252 270.337 179.199C270.206 179.145 270.066 179.118 269.924 179.118C269.782 179.118 269.642 179.145 269.511 179.199C269.38 179.252 269.262 179.33 269.162 179.428L269.133 179.459L261.279 188.531L256.839 184.164C256.74 184.065 256.622 183.987 256.491 183.934C256.36 183.881 256.22 183.853 256.078 183.853C255.936 183.853 255.796 183.881 255.665 183.934C255.534 183.987 255.416 184.065 255.316 184.164C255.115 184.364 255.001 184.632 255.001 184.912C255.001 185.192 255.115 185.461 255.316 185.66L260.55 190.808C260.652 190.908 260.773 190.988 260.907 191.041C261.042 191.094 261.186 191.12 261.331 191.118C261.476 191.115 261.619 191.084 261.751 191.026C261.883 190.967 262.001 190.884 262.099 190.78L270.7 180.911C271.107 180.496 271.101 179.836 270.685 179.428Z" fill="url(#paint12_linear_6126_749)"/>
<path fill-rule="evenodd" clip-rule="evenodd" d="M263.001 200.451C271.838 200.451 279.001 193.288 279.001 184.451C279.001 175.615 271.838 168.451 263.001 168.451C254.165 168.451 247.001 175.615 247.001 184.451C247.001 193.288 254.165 200.451 263.001 200.451Z" fill="url(#paint13_linear_6126_749)"/>
<path d="M269.162 179.428C269.262 179.33 269.38 179.252 269.511 179.199C269.642 179.145 269.782 179.118 269.924 179.118C270.066 179.118 270.206 179.145 270.337 179.199C270.468 179.252 270.586 179.33 270.685 179.428C271.101 179.836 271.107 180.496 270.7 180.911L262.099 190.78C262.001 190.884 261.883 190.967 261.751 191.026C261.619 191.084 261.476 191.115 261.331 191.118C261.186 191.12 261.042 191.094 260.907 191.041C260.773 190.988 260.652 190.908 260.55 190.808L255.316 185.66C255.115 185.461 255.001 185.192 255.001 184.912C255.001 184.632 255.115 184.364 255.316 184.164C255.416 184.065 255.534 183.987 255.665 183.934C255.796 183.881 255.936 183.853 256.078 183.853C256.22 183.853 256.36 183.881 256.491 183.934C256.622 183.987 256.74 184.065 256.839 184.164L261.279 188.531L269.133 179.459L269.162 179.428Z" fill="url(#paint14_linear_6126_749)"/>
<path fill-rule="evenodd" clip-rule="evenodd" d="M270.685 179.428C270.586 179.33 270.468 179.252 270.337 179.199C270.206 179.145 270.066 179.118 269.924 179.118C269.782 179.118 269.642 179.145 269.511 179.199C269.38 179.252 269.262 179.33 269.162 179.428L269.133 179.459L261.279 188.531L256.839 184.164C256.74 184.065 256.622 183.987 256.491 183.934C256.36 183.881 256.22 183.853 256.078 183.853C255.936 183.853 255.796 183.881 255.665 183.934C255.534 183.987 255.416 184.065 255.316 184.164C255.115 184.364 255.001 184.632 255.001 184.912C255.001 185.192 255.115 185.461 255.316 185.66L260.55 190.808C260.652 190.908 260.773 190.988 260.907 191.041C261.042 191.094 261.186 191.12 261.331 191.118C261.476 191.115 261.619 191.084 261.751 191.026C261.883 190.967 262.001 190.884 262.099 190.78L270.7 180.911C271.107 180.496 271.101 179.836 270.685 179.428Z" fill="url(#paint15_linear_6126_749)"/>
<path fill-rule="evenodd" clip-rule="evenodd" d="M263.001 198.451C270.733 198.451 277.001 192.183 277.001 184.451C277.001 176.719 270.733 170.451 263.001 170.451C255.269 170.451 249.001 176.719 249.001 184.451C249.001 192.183 255.269 198.451 263.001 198.451ZM263.001 200.451C271.838 200.451 279.001 193.288 279.001 184.451C279.001 175.615 271.838 168.451 263.001 168.451C254.165 168.451 247.001 175.615 247.001 184.451C247.001 193.288 254.165 200.451 263.001 200.451Z" fill="url(#paint16_linear_6126_749)"/>
<path d="M32 172.5C32 171.672 32.6716 171 33.5 171H90.5C91.3284 171 92 171.672 92 172.5C92 173.328 91.3284 174 90.5 174H33.5C32.6716 174 32 173.328 32 172.5Z" fill="url(#paint17_linear_6126_749)"/>
<path d="M32 184.5C32 183.672 32.6716 183 33.5 183H86.5C87.3284 183 88 183.672 88 184.5C88 185.328 87.3284 186 86.5 186H33.5C32.6716 186 32 185.328 32 184.5Z" fill="url(#paint18_linear_6126_749)"/>
<path d="M32 196.5C32 195.672 32.6716 195 33.5 195H90.5C91.3284 195 92 195.672 92 196.5C92 197.328 91.3284 198 90.5 198H33.5C32.6716 198 32 197.328 32 196.5Z" fill="url(#paint19_linear_6126_749)"/>
<path d="M161.07 168.558C157.542 175.995 153.983 183.772 151.025 191.472C154.537 185.368 157.85 178.799 160.931 172.416C163.442 178.706 166.061 184.965 169.019 191.069C166.739 183.431 163.935 175.979 161.07 168.558Z" fill="#C3DCDE"/>
<path d="M206.98 191.069C209.907 185.073 212.603 178.659 215.068 172.416C218.18 178.861 221.4 185.259 224.974 191.472C221.97 183.679 218.488 176.103 214.929 168.558C212.079 175.871 209.229 183.524 206.98 191.069Z" fill="#C3DCDE"/>
<path d="M153.413 195.438C158.635 195.237 165.676 194.478 170.483 193.997C164.012 193.161 156.756 192.541 150.008 192.479C149.777 198.847 154.553 204.393 161.039 204.145C166.292 204.068 171.022 199.218 170.483 194.013C168.403 203.231 155.924 204.006 153.413 195.438Z" fill="#C3DCDE"/>
<path d="M205.516 193.997C210.292 194.478 217.379 195.237 222.586 195.438C220.075 204.006 207.596 203.247 205.516 193.997C204.977 199.203 209.707 204.068 214.96 204.13C221.446 204.393 226.237 198.831 225.991 192.464C219.243 192.541 211.987 193.161 205.516 193.997Z" fill="#C3DCDE"/>
<path d="M188 207.352C189.279 194.044 189.925 180.643 189.016 167.303C191.327 164.561 193.885 161.772 196.796 160.13C204.284 155.405 208.012 166.9 215.114 166.869C218.827 166.885 223.264 164.391 223.033 160.239C222.509 164.112 218.581 165.692 215.114 165.351C209.691 164.453 207.504 157.217 201.588 156.381C196.303 155.668 192.113 159.402 188.724 163.027C188.631 161.865 188.492 160.703 188.385 159.526C189.355 159.371 190.295 158.658 190.927 157.295C189.509 154.227 186.52 154.243 185.088 157.295C185.719 158.643 186.659 159.371 187.63 159.526C187.522 160.672 187.383 161.803 187.291 162.95C182.392 157.713 175.351 153.019 169.05 159.247C166.4 161.416 164.367 164.964 160.885 165.336C157.418 165.676 153.505 164.096 152.966 160.223C152.72 164.391 157.187 166.885 160.885 166.869C165.044 166.931 167.663 163.291 170.575 161.122C176.707 155.684 182.761 162.284 186.967 167.303C186.074 180.643 186.706 194.044 188 207.352Z" fill="url(#paint20_linear_6126_749)"/>
<rect y="243" width="405" height="178" fill="url(#paint21_linear_6126_749)"/>
</g>
<defs>
<filter id="filter0_f_6126_749" x="-3" y="-2" width="411" height="458" filterUnits="userSpaceOnUse" color-interpolation-filters="sRGB">
<feFlood flood-opacity="0" result="BackgroundImageFix"/>
<feBlend mode="normal" in="SourceGraphic" in2="BackgroundImageFix" result="shape"/>
<feGaussianBlur stdDeviation="15" result="effect1_foregroundBlur_6126_749"/>
</filter>
<linearGradient id="paint0_linear_6126_749" x1="48.5" y1="33" x2="296.004" y2="289.215" gradientUnits="userSpaceOnUse">
<stop stop-color="#F4B62B"/>
<stop offset="0.52" stop-color="#BC52AD"/>
<stop offset="1" stop-color="white"/>
</linearGradient>
<linearGradient id="paint1_linear_6126_749" x1="-13.61" y1="33" x2="455.498" y2="258.784" gradientUnits="userSpaceOnUse">
<stop stop-color="#F4B62B"/>
<stop offset="0.610758" stop-color="#BC52AD"/>
<stop offset="0.95" stop-color="white"/>
</linearGradient>
<linearGradient id="paint2_linear_6126_749" x1="321" y1="184.183" x2="277" y2="185" gradientUnits="userSpaceOnUse">
<stop stop-color="#C3DCDE"/>
<stop offset="1" stop-color="white"/>
</linearGradient>
<linearGradient id="paint3_linear_6126_749" x1="344" y1="183.352" x2="263.681" y2="183.352" gradientUnits="userSpaceOnUse">
<stop stop-color="#DFECEE"/>
<stop offset="1" stop-color="white"/>
</linearGradient>
<linearGradient id="paint4_linear_6126_749" x1="301" y1="184.944" x2="275.5" y2="185" gradientUnits="userSpaceOnUse">
<stop stop-color="#9AC2C6"/>
<stop offset="1" stop-color="white"/>
</linearGradient>
<linearGradient id="paint5_linear_6126_749" x1="106.5" y1="172" x2="118.5" y2="195" gradientUnits="userSpaceOnUse">
<stop stop-color="#4F868E"/>
<stop offset="1" stop-color="#C3DCDE"/>
</linearGradient>
<linearGradient id="paint6_linear_6126_749" x1="106.5" y1="172" x2="118.5" y2="195" gradientUnits="userSpaceOnUse">
<stop stop-color="#4F868E"/>
<stop offset="1" stop-color="#C3DCDE"/>
</linearGradient>
<linearGradient id="paint7_linear_6126_749" x1="102.668" y1="172.451" x2="125.335" y2="195.785" gradientUnits="userSpaceOnUse">
<stop stop-color="#314248"/>
<stop offset="1" stop-color="#4F868E"/>
</linearGradient>
<linearGradient id="paint8_linear_6126_749" x1="102.668" y1="172.451" x2="125.335" y2="195.785" gradientUnits="userSpaceOnUse">
<stop stop-color="#314248"/>
<stop offset="1" stop-color="#4F868E"/>
</linearGradient>
<linearGradient id="paint9_linear_6126_749" x1="115.31" y1="157.597" x2="261.019" y2="157.597" gradientUnits="userSpaceOnUse">
<stop stop-color="#DFECEE"/>
<stop offset="1" stop-color="#4F868E"/>
</linearGradient>
<linearGradient id="paint10_linear_6126_749" x1="259.671" y1="211.135" x2="114.981" y2="211.135" gradientUnits="userSpaceOnUse">
<stop stop-color="#DFECEE"/>
<stop offset="1" stop-color="#4F868E"/>
</linearGradient>
<linearGradient id="paint11_linear_6126_749" x1="257" y1="170.5" x2="267.5" y2="197.5" gradientUnits="userSpaceOnUse">
<stop stop-color="#4F868E"/>
<stop offset="1" stop-color="#DFECEE"/>
</linearGradient>
<linearGradient id="paint12_linear_6126_749" x1="257" y1="170.5" x2="267.5" y2="197.5" gradientUnits="userSpaceOnUse">
<stop stop-color="#4F868E"/>
<stop offset="1" stop-color="#DFECEE"/>
</linearGradient>
<linearGradient id="paint13_linear_6126_749" x1="257" y1="170.5" x2="267.5" y2="197.5" gradientUnits="userSpaceOnUse">
<stop stop-color="#4F868E"/>
<stop offset="1" stop-color="#DFECEE"/>
</linearGradient>
<linearGradient id="paint14_linear_6126_749" x1="251.668" y1="172.451" x2="274.335" y2="195.785" gradientUnits="userSpaceOnUse">
<stop stop-color="#314248"/>
<stop offset="1" stop-color="#4F868E"/>
</linearGradient>
<linearGradient id="paint15_linear_6126_749" x1="251.668" y1="172.451" x2="274.335" y2="195.785" gradientUnits="userSpaceOnUse">
<stop stop-color="#314248"/>
<stop offset="1" stop-color="#4F868E"/>
</linearGradient>
<linearGradient id="paint16_linear_6126_749" x1="251.668" y1="172.451" x2="274.335" y2="195.785" gradientUnits="userSpaceOnUse">
<stop stop-color="#314248"/>
<stop offset="1" stop-color="#4F868E"/>
</linearGradient>
<linearGradient id="paint17_linear_6126_749" x1="32" y1="172.5" x2="92" y2="172.5" gradientUnits="userSpaceOnUse">
<stop stop-color="white"/>
<stop offset="1" stop-color="#F4B62B"/>
</linearGradient>
<linearGradient id="paint18_linear_6126_749" x1="32" y1="184.5" x2="88" y2="184.5" gradientUnits="userSpaceOnUse">
<stop stop-color="white"/>
<stop offset="1" stop-color="#BC52AD"/>
</linearGradient>
<linearGradient id="paint19_linear_6126_749" x1="32" y1="196.5" x2="92" y2="196.5" gradientUnits="userSpaceOnUse">
<stop stop-color="white"/>
<stop offset="1" stop-color="#86AD6E"/>
</linearGradient>
<linearGradient id="paint20_linear_6126_749" x1="187.999" y1="155" x2="187.999" y2="207.352" gradientUnits="userSpaceOnUse">
<stop stop-color="#C3DCDE"/>
<stop offset="1" stop-color="white"/>
</linearGradient>
<linearGradient id="paint21_linear_6126_749" x1="202.5" y1="243" x2="202.5" y2="312.652" gradientUnits="userSpaceOnUse">
<stop stop-color="white" stop-opacity="0.05"/>
<stop offset="1" stop-color="white"/>
</linearGradient>
<clipPath id="clip0_6126_749">
<rect width="405" height="420" fill="white" transform="translate(0 1)"/>
</clipPath>
</defs>
</svg>
