<svg width="32" height="32" viewBox="0 0 32 32" fill="none" xmlns="http://www.w3.org/2000/svg">
<path d="M32 0H0V32H32V0Z" fill="#3F768A"/>
<path d="M19.2533 10.779C18.6249 10.7833 18.0055 10.9301 17.442 11.2083C16.8785 11.4865 16.3854 11.8889 16 12.3851C15.6149 11.8889 15.1221 11.4865 14.5589 11.2083C13.9956 10.9301 13.3766 10.7833 12.7483 10.779C10.405 10.779 8.5 12.795 8.5 15.2776V20.196C8.5 20.4611 8.60534 20.7154 8.7929 20.9029C8.98042 21.0903 9.23478 21.1957 9.5 21.1957C9.76522 21.1957 10.0196 21.0903 10.2071 20.9029C10.3947 20.7154 10.5 20.4611 10.5 20.196V15.2742C10.5 13.8946 11.5117 12.775 12.755 12.775C13.9983 12.775 15.01 13.898 15.01 15.2742V20.1926C15.01 20.4578 15.1154 20.712 15.3029 20.8995C15.4904 21.087 15.7448 21.1923 16.01 21.1923C16.2752 21.1923 16.5296 21.087 16.7171 20.8995C16.9046 20.712 17.01 20.4578 17.01 20.1926V15.2742C17.01 13.8946 18.0217 12.775 19.265 12.775C20.5083 12.775 21.52 13.898 21.52 15.2742V20.1926C21.52 20.4578 21.6253 20.712 21.8129 20.8995C22.0004 21.087 22.2548 21.1923 22.52 21.1923C22.7852 21.1923 23.0396 21.087 23.2271 20.8995C23.4147 20.712 23.52 20.4578 23.52 20.1926V15.2742C23.5017 12.795 21.5967 10.779 19.2533 10.779Z" fill="#EBEAEF"/>
<path d="M16 3.48798C12.686 3.49194 9.5089 4.80977 7.16554 7.15236C4.82221 9.49495 3.50397 12.671 3.5 15.984C3.50397 19.2969 4.82221 22.473 7.16554 24.8156C9.5089 27.1582 12.686 28.476 16 28.48C19.3141 28.4765 22.4915 27.1588 24.8349 24.8161C27.1784 22.4734 28.4965 19.297 28.5 15.984C28.496 12.671 27.1778 9.49495 24.8345 7.15236C22.4911 4.80977 19.314 3.49194 16 3.48798ZM16 27.9801C12.8185 27.9766 9.76829 26.7116 7.51862 24.4626C5.26896 22.2137 4.00352 19.1645 4 15.984C4.00352 12.8035 5.26896 9.75425 7.51862 7.50532C9.76829 5.25636 12.8185 3.99134 16 3.98782C19.1815 3.99134 22.2317 5.25636 24.4814 7.50532C26.7311 9.75425 27.9965 12.8035 28 15.984C27.9965 19.1645 26.7311 22.2137 24.4814 24.4626C22.2317 26.7116 19.1815 27.9766 16 27.9801Z" fill="#EBEAEF"/>
</svg>
